<?xml version="1.0" encoding="utf-8"?>
<!-- Generator: Adobe Illustrator 24.2.1, SVG Export Plug-In . SVG Version: 6.00 Build 0)  -->
<svg version="1.1" id="Layer_1" xmlns="http://www.w3.org/2000/svg" xmlns:xlink="http://www.w3.org/1999/xlink" x="0px" y="0px"
	 viewBox="0 0 400.5 143.4" style="enable-background:new 0 0 400.5 143.4;" xml:space="preserve">
<style type="text/css">
	.st0{fill:url(#SVGID_1_);}
	.st1{fill:#9C9BA0;}
	.st2{fill:#252E65;}
	.st3{fill:url(#SVGID_2_);}
	.st4{fill:url(#SVGID_3_);}
	.st5{fill:url(#SVGID_4_);}
	.st6{fill:url(#SVGID_5_);}
</style>
<g>
	<g>
		<g>
			<g>
				<g>
					
						<linearGradient id="SVGID_1_" gradientUnits="userSpaceOnUse" x1="-118.0172" y1="-288.5748" x2="-73.4564" y2="-288.5748" gradientTransform="matrix(0.9937 -0.112 0.112 0.9937 221.3986 325.5881)">
						<stop  offset="0" style="stop-color:#054223"/>
						<stop  offset="0.4921" style="stop-color:#056B37"/>
						<stop  offset="1" style="stop-color:#7A993D"/>
					</linearGradient>
					<path class="st0" d="M106,38.4l-25.5,4.8l-7.6,18.5l36.2-6.7c5.6-1,8.6-7.2,5.9-12.3l0,0C113.3,39.5,109.6,37.8,106,38.4z"/>
					<polygon class="st1" points="94.7,40.6 91.9,41.1 86.5,59.2 87,59.1 89.3,58.7 					"/>
					<g>
						<g>
							<path class="st2" d="M183.6,68.3v-0.2c0-16.3,12.5-30.2,30.1-30.2c8.8,0,14.6,2.1,19.9,5.9c1,0.8,2.1,2.2,2.1,4.2
								c0,2.8-2.3,5.1-5.1,5.1c-1.3,0-2.3-0.6-3.2-1.2c-3.8-2.8-7.8-4.6-14.2-4.6c-10.8,0-18.9,9.4-18.9,20.6v0.2
								c0,12,7.9,20.8,19.8,20.8c5.5,0,10.5-1.8,14.1-4.4V73.7h-11.5c-2.5,0-4.6-1.9-4.6-4.4c0-2.5,2.1-4.5,4.6-4.5H233
								c2.9,0,5.2,2.2,5.2,5.2v15.6c0,2.9-1.2,5-3.6,6.5c-5,3.3-12,6.3-20.8,6.3C195.6,98.4,183.6,85.3,183.6,68.3z"/>
							<path class="st2" d="M251.5,92.2v-48c0-2.9,2.3-5.2,5.2-5.2h33.9c2.5,0,4.6,2.1,4.6,4.6c0,2.6-2.1,4.6-4.6,4.6h-28.9v15.2
								h25.1c2.5,0,4.6,2.1,4.6,4.7c0,2.5-2.1,4.5-4.6,4.5h-25.1v15.7h29.3c2.5,0,4.6,2.1,4.6,4.6c0,2.6-2.1,4.6-4.6,4.6h-34.4
								C253.8,97.4,251.5,95.1,251.5,92.2z"/>
							<path class="st2" d="M304.1,90.7l21.7-48.4c1.2-2.6,3.3-4.2,6.2-4.2h0.5c2.9,0,4.9,1.6,6.1,4.2l21.7,48.4
								c0.4,0.8,0.6,1.5,0.6,2.2c0,2.8-2.1,4.9-4.8,4.9c-2.4,0-4.1-1.4-5-3.6l-4.8-10.9h-28.4l-4.9,11.3c-0.8,2.1-2.6,3.3-4.8,3.3
								c-2.7,0-4.8-2.1-4.8-4.8C303.4,92.3,303.6,91.5,304.1,90.7z M342.3,74.2L332,50.6l-10.3,23.6H342.3z"/>
						</g>
					</g>
					
						<linearGradient id="SVGID_2_" gradientUnits="userSpaceOnUse" x1="-131.628" y1="-239.1949" x2="-53.7112" y2="-239.1949" gradientTransform="matrix(0.9937 -0.112 0.112 0.9937 221.3986 325.5881)">
						<stop  offset="0" style="stop-color:#5A1D33"/>
						<stop  offset="0.507" style="stop-color:#9C1B32"/>
						<stop  offset="1" style="stop-color:#EA7032"/>
					</linearGradient>
					<path class="st3" d="M131,84.1L63.1,96.7l1.9,16.8l69.1-12.8c5.6-1,8.6-7.2,5.9-12.2l0,0C138.3,85.2,134.6,83.4,131,84.1z"/>
					<path class="st1" d="M78.8,93.8l-3.5,0.6l-4.4,10.8l2.1,6.8l3.5-0.7l-0.4-0.7c-1-1.7-1.2-3.7-0.7-5.6L78.8,93.8z"/>
					
						<linearGradient id="SVGID_3_" gradientUnits="userSpaceOnUse" x1="-115.8763" y1="-264.5006" x2="-63.9505" y2="-264.5006" gradientTransform="matrix(0.9937 -0.112 0.112 0.9937 221.3986 325.5881)">
						<stop  offset="0" style="stop-color:#1B1B4A"/>
						<stop  offset="0.5032" style="stop-color:#252E65"/>
						<stop  offset="1" style="stop-color:#0361AA"/>
					</linearGradient>
					<path class="st4" d="M118.1,61.1L79,68.2l-1.3,17.4l43.4-7.9c5.6-1,8.6-7.2,5.9-12.3l0,0C125.4,62.1,121.7,60.4,118.1,61.1z"/>
					<polygon class="st1" points="78.3,85.5 81.5,85 86.9,66.8 84.1,67.3 					"/>
					<linearGradient id="SVGID_4_" gradientUnits="userSpaceOnUse" x1="103.679" y1="12.1784" x2="61.8452" y2="108.9701">
						<stop  offset="0" style="stop-color:#1B1B4A"/>
						<stop  offset="0.5032" style="stop-color:#252E65"/>
						<stop  offset="1" style="stop-color:#0361AA"/>
					</linearGradient>
					<path class="st5" d="M79.2,84.5l22.9-74.6L41.7,95.6c-4.5,6.5-0.9,15.4,6.8,17l20.7,4.1l14.3,2.7c0,0-4.7-1.6-6.4-3.2
						c-3.5-3.3-5.1-8.4-3.6-13.3l0,0L79.2,84.5z"/>
					<linearGradient id="SVGID_5_" gradientUnits="userSpaceOnUse" x1="95.339" y1="89.2063" x2="170.9292" y2="89.2063">
						<stop  offset="0" style="stop-color:#1B1B4A"/>
						<stop  offset="0.5032" style="stop-color:#252E65"/>
						<stop  offset="1" style="stop-color:#04559F"/>
					</linearGradient>
					<path class="st6" d="M138.1,59.9l31.6,43.5c3,4.2,0.3,10.1-4.9,10.5l-69.4,4.8l44.3-9.5c9.8-2.1,15.1-12.7,11-21.8L138.1,59.9z
						"/>
				</g>
			</g>
		</g>
	</g>
	<g>
		<path class="st2" d="M185.2,105.6c0-0.5,0.4-0.8,0.8-0.8c0.5,0,0.8,0.4,0.8,0.8v7.8c0,0.5-0.4,0.8-0.8,0.8c-0.5,0-0.8-0.4-0.8-0.8
			V105.6z"/>
		<path class="st2" d="M194.6,105.6c0-0.5,0.4-0.8,0.8-0.8h0.2c0.4,0,0.6,0.2,0.8,0.5l4.6,6v-5.7c0-0.4,0.4-0.8,0.8-0.8
			c0.5,0,0.8,0.4,0.8,0.8v7.8c0,0.5-0.3,0.8-0.8,0.8h-0.1c-0.4,0-0.6-0.2-0.8-0.5l-4.8-6.2v5.9c0,0.4-0.4,0.8-0.8,0.8
			c-0.5,0-0.8-0.4-0.8-0.8V105.6z"/>
		<path class="st2" d="M212.6,106.3h-2.3c-0.4,0-0.8-0.3-0.8-0.8c0-0.4,0.3-0.8,0.8-0.8h6.2c0.4,0,0.7,0.3,0.7,0.8
			c0,0.4-0.3,0.8-0.7,0.8h-2.3v7c0,0.5-0.4,0.8-0.8,0.8s-0.8-0.4-0.8-0.8V106.3z"/>
		<path class="st2" d="M224.2,113.3v-7.6c0-0.5,0.4-0.8,0.8-0.8h5.4c0.4,0,0.7,0.3,0.7,0.7c0,0.4-0.3,0.7-0.7,0.7h-4.6v2.4h4
			c0.4,0,0.7,0.3,0.7,0.7c0,0.4-0.3,0.7-0.7,0.7h-4v2.5h4.6c0.4,0,0.7,0.3,0.7,0.7c0,0.4-0.3,0.7-0.7,0.7H225
			C224.6,114.1,224.2,113.7,224.2,113.3z"/>
		<path class="st2" d="M238.4,105.6c0-0.5,0.4-0.8,0.8-0.8h3.3c1.2,0,2.1,0.3,2.7,0.9c0.5,0.5,0.8,1.2,0.8,2v0
			c0,1.5-0.9,2.4-2.1,2.8l1.8,2.2c0.2,0.2,0.3,0.4,0.3,0.6c0,0.5-0.4,0.8-0.8,0.8c-0.4,0-0.6-0.2-0.8-0.4l-2.3-2.9H240v2.5
			c0,0.5-0.4,0.8-0.8,0.8c-0.5,0-0.8-0.4-0.8-0.8V105.6z M242.4,109.4c1.2,0,1.9-0.6,1.9-1.5v0c0-1-0.7-1.5-1.9-1.5H240v3.1H242.4z"
			/>
		<path class="st2" d="M253.3,105.6c0-0.5,0.4-0.8,0.8-0.8h0.2c0.4,0,0.6,0.2,0.8,0.5l4.6,6v-5.7c0-0.4,0.4-0.8,0.8-0.8
			c0.5,0,0.8,0.4,0.8,0.8v7.8c0,0.5-0.3,0.8-0.8,0.8h-0.1c-0.4,0-0.6-0.2-0.8-0.5l-4.8-6.2v5.9c0,0.4-0.4,0.8-0.8,0.8
			c-0.5,0-0.8-0.4-0.8-0.8V105.6z"/>
		<path class="st2" d="M268.5,113l3.4-7.7c0.2-0.4,0.5-0.7,1-0.7h0.1c0.5,0,0.8,0.3,1,0.7l3.4,7.7c0.1,0.1,0.1,0.2,0.1,0.3
			c0,0.4-0.3,0.8-0.8,0.8c-0.4,0-0.6-0.2-0.8-0.6l-0.8-1.7h-4.5l-0.8,1.8c-0.1,0.3-0.4,0.5-0.8,0.5c-0.4,0-0.8-0.3-0.8-0.8
			C268.4,113.3,268.4,113.2,268.5,113z M274.6,110.4l-1.6-3.7l-1.6,3.7H274.6z"/>
		<path class="st2" d="M283.8,109.5L283.8,109.5c0-2.7,2-4.8,4.8-4.8c1.4,0,2.4,0.4,3.2,1c0.2,0.1,0.3,0.4,0.3,0.6
			c0,0.5-0.4,0.8-0.8,0.8c-0.2,0-0.4-0.1-0.5-0.2c-0.6-0.5-1.3-0.8-2.2-0.8c-1.8,0-3.1,1.5-3.1,3.3v0c0,1.8,1.3,3.3,3.1,3.3
			c1,0,1.6-0.3,2.3-0.9c0.1-0.1,0.3-0.2,0.5-0.2c0.4,0,0.8,0.3,0.8,0.8c0,0.3-0.1,0.5-0.3,0.6c-0.9,0.8-1.9,1.2-3.4,1.2
			C285.8,114.2,283.8,112.1,283.8,109.5z"/>
		<path class="st2" d="M299.3,105.6c0-0.5,0.4-0.8,0.8-0.8c0.5,0,0.8,0.4,0.8,0.8v7.8c0,0.5-0.4,0.8-0.8,0.8c-0.5,0-0.8-0.4-0.8-0.8
			V105.6z"/>
		<path class="st2" d="M308.3,109.5L308.3,109.5c0-2.6,2-4.8,4.9-4.8s4.8,2.2,4.8,4.8v0c0,2.6-2,4.8-4.9,4.8
			C310.3,114.2,308.3,112.1,308.3,109.5z M316.3,109.5L316.3,109.5c0-1.8-1.3-3.3-3.2-3.3c-1.8,0-3.1,1.5-3.1,3.3v0
			c0,1.8,1.3,3.3,3.2,3.3C315,112.7,316.3,111.3,316.3,109.5z"/>
		<path class="st2" d="M325.3,105.6c0-0.5,0.4-0.8,0.8-0.8h0.2c0.4,0,0.6,0.2,0.8,0.5l4.6,6v-5.7c0-0.4,0.4-0.8,0.8-0.8
			c0.5,0,0.8,0.4,0.8,0.8v7.8c0,0.5-0.3,0.8-0.8,0.8h-0.1c-0.4,0-0.6-0.2-0.8-0.5l-4.8-6.2v5.9c0,0.4-0.4,0.8-0.8,0.8
			c-0.5,0-0.8-0.4-0.8-0.8V105.6z"/>
		<path class="st2" d="M340.5,113l3.4-7.7c0.2-0.4,0.5-0.7,1-0.7h0.1c0.5,0,0.8,0.3,1,0.7l3.4,7.7c0.1,0.1,0.1,0.2,0.1,0.3
			c0,0.4-0.3,0.8-0.8,0.8c-0.4,0-0.6-0.2-0.8-0.6l-0.8-1.7h-4.5l-0.8,1.8c-0.1,0.3-0.4,0.5-0.8,0.5c-0.4,0-0.8-0.3-0.8-0.8
			C340.4,113.3,340.5,113.2,340.5,113z M346.6,110.4l-1.6-3.7l-1.6,3.7H346.6z"/>
		<path class="st2" d="M356.6,105.6c0-0.5,0.4-0.8,0.8-0.8c0.5,0,0.8,0.4,0.8,0.8v7h4.2c0.4,0,0.7,0.3,0.7,0.7
			c0,0.4-0.3,0.7-0.7,0.7h-5c-0.5,0-0.8-0.4-0.8-0.8V105.6z"/>
	</g>
</g>
</svg>
